<svg width="64" height="64" viewBox="0 0 1080 1080" xmlns="http://www.w3.org/2000/svg">
  <g>
    <path d="M540 0C241.8 0 0 241.8 0 540s241.8 540 540 540 540-241.8 540-540S838.2 0 540 0z" fill="#FFD983"/>
    <path d="M270 405c-82.8 0-150 67.2-150 150s67.2 150 150 150 150-67.2 150-150-67.2-150-150-150zm540 0c-82.8 0-150 67.2-150 150s67.2 150 150 150 150-67.2 150-150-67.2-150-150-150z" fill="#DD2E44"/>
    <path d="M540 720c-49.7 0-90-40.3-90-90s40.3-90 90-90 90 40.3 90 90-40.3 90-90 90z" fill="#DD2E44"/>
    <path d="M225 405c-16.6 0-30 13.4-30 30s13.4 30 30 30 30-13.4 30-30-13.4-30-30-30zm630 0c-16.6 0-30 13.4-30 30s13.4 30 30 30 30-13.4 30-30-13.4-30-30-30z" fill="#F4F7F9"/>
    <path d="M540 810c-148.5 0-270-121.5-270-270s121.5-270 270-270 270 121.5 270 270-121.5 270-270 270zm0-480c-115.8 0-210 94.2-210 210s94.2 210 210 210 210-94.2 210-210-94.2-210-210-210z" fill="#292F33"/>
  </g>
</svg> 